# xmcd CD database file
#
# Track frame offsets:
#	150
#	11283
#	46938
#	54682
#	75422
#	87713
#	96780
#	116168
#	121035
#	131223
#	160790
#	182130
#	207861
#
# Disc length: 2902 seconds
#
# Revision: 0
# Processed by: cddbd v1.5.1PL0 Copyright (c) Steve Scherf et al.
# Submitted via: CDex 1.51
#
DISCID=a70b540d
DTITLE=Stephan Oliva - Itinéraire imaginaire
DYEAR=2004
DGENRE=Jazz
TTITLE0=Préface
TTITLE1=Marche antique
TTITLE2=Résonance d'un silence
TTITLE3=Spirales
TTITLE4=Cercle ouvert
TTITLE5=Partance immobile
TTITLE6=Cécile seule
TTITLE7=Mouvement interrompu
TTITLE8=Paradoxe
TTITLE9=Tango indigo
TTITLE10=Passage en marge
TTITLE11=Ellipse
TTITLE12=Postface
EXTD=YEAR: 2004
EXTT0=
EXTT1=
EXTT2=
EXTT3=
EXTT4=
EXTT5=
EXTT6=
EXTT7=
EXTT8=
EXTT9=
EXTT10=
EXTT11=
EXTT12=
PLAYORDER=
